<?xml version="1.0" ?><svg viewBox="0 0 64 64" xmlns="http://www.w3.org/2000/svg"><defs><style>.cls-1{fill:#dd5891;}.cls-2{fill:#d9387c;}.cls-3{fill:#f7f8fa;}</style></defs><g id="Octopus"><path class="cls-1" d="M17,41.52c-.22.07-.45.15-.69.21a8.72,8.72,0,0,1-5-.31,2.18,2.18,0,0,1,1.39-4.14,3.89,3.89,0,0,0,2.5.22,10.59,10.59,0,0,0,2.34-1.15,16,16,0,0,1,6-2.16l4.29,1-3.37,4.93Z" id="path207148-5"/><path class="cls-1" d="M40.44,34.19a16,16,0,0,1,6,2.16,10.59,10.59,0,0,0,2.34,1.15,3.89,3.89,0,0,0,2.5-.22,2.18,2.18,0,0,1,1.39,4.14,8.72,8.72,0,0,1-5,.31c-.24-.06-.47-.14-.69-.21l-2.7.64-6.24-3.51Z" id="path207138-5"/><path class="cls-2" d="M41.24,37.66a9.24,9.24,0,0,1,6.28,4.61,4.37,4.37,0,0,0,3.6,2.23,6.93,6.93,0,0,0,2.35-.11,2.18,2.18,0,0,1,1.12,4.22,11.8,11.8,0,0,1-4,.23,9.09,9.09,0,0,1-6.85-4.34,6.15,6.15,0,0,0-1.87-2.2l-4.37,3.42a7,7,0,0,0-.84-3.32h0a4.69,4.69,0,0,0-2.88-1.8,9.79,9.79,0,0,0-3.62,0,4.61,4.61,0,0,0-2.87,1.79,6.89,6.89,0,0,0-.85,3.32L22.1,42.3a6.15,6.15,0,0,0-1.87,2.2,9.09,9.09,0,0,1-6.85,4.34,11.8,11.8,0,0,1-4-.23,2.18,2.18,0,0,1,1.12-4.22,6.93,6.93,0,0,0,2.35.11,4.37,4.37,0,0,0,3.6-2.23,9.24,9.24,0,0,1,6.28-4.61l8.93-4.31Z" id="path207142-3"/><path class="cls-1" d="M36.69,38.12a7,7,0,0,1,.84,3.32v6A8.61,8.61,0,0,0,46.1,56h1.41a2.19,2.19,0,0,0,0-4.37H46.1a4.17,4.17,0,0,1-4.2-4.2v-6a11.21,11.21,0,0,0-.84-4.27,7.89,7.89,0,0,1,.15-6.57,22.31,22.31,0,0,0,3-10.34,12.26,12.26,0,1,0-24.52,0A22.31,22.31,0,0,0,22.79,30.6a7.89,7.89,0,0,1,.15,6.57,11.4,11.4,0,0,0-.84,4.27v6a4.16,4.16,0,0,1-4.2,4.2H16.5a2.19,2.19,0,1,0,0,4.37h1.4a8.61,8.61,0,0,0,8.57-8.57v-6a6.86,6.86,0,0,1,.85-3.32,4.61,4.61,0,0,1,2.87-1.79,9.79,9.79,0,0,1,3.62,0A4.69,4.69,0,0,1,36.69,38.12Z" id="path189293-6"/><path class="cls-3" d="M30.36,23.82a2.73,2.73,0,1,1-2.73-2.72A2.72,2.72,0,0,1,30.36,23.82Z" id="path206029-6"/><path class="cls-3" d="M39.09,23.82a2.73,2.73,0,1,1-2.72-2.72A2.72,2.72,0,0,1,39.09,23.82Z" id="path206134-2"/></g></svg>